<svg width="253" height="96" fill="none" xmlns="http://www.w3.org/2000/svg"><g clip-path="url(#a)"><path d="M221.804 31.712v.042-.042Zm24.746-8.04h-14.902a6.44 6.44 0 0 0-6.434 6.44v11.535c-3.319.035-6.6.715-9.661 2a1.285 1.285 0 0 1-.47-.435 9.12 9.12 0 0 0 4.946-3.017 9.416 9.416 0 0 0 2.021-6.055l-.232-2.386c-.526-2.624-2.68-7.303-7.016-12.628l.87-1.586a7.06 7.06 0 0 0 1.221-3.908 6.239 6.239 0 0 0-.225-1.67c-.645-2.406-2.525-4.21-5.577-5.374-4.21-1.607-6.687-.042-7.774 1.031a6.143 6.143 0 0 0-1.263 1.923 7.494 7.494 0 0 0 .196-1.579c.001-.5-.051-.998-.154-1.487a7.706 7.706 0 0 0-3.389-4.841A11.463 11.463 0 0 0 190.134.28a11.472 11.472 0 0 0-7.304 4.68 7.897 7.897 0 0 0-1.333 4.314c.002.495.054.989.154 1.473a7.175 7.175 0 0 0 1.284 2.716c-.762.38-1.496.817-2.196 1.305a6.953 6.953 0 0 0-6.174-3.438 16.13 16.13 0 0 0-6.033 1.403c.364-2.105 1.08-6.076 1.08-6.076l.063-.701a4.02 4.02 0 0 0-4.715-3.95l-6.314 1.115a3.994 3.994 0 0 0-3.22 3.094s-.99 4.546-1.537 7.016a9.406 9.406 0 0 0-2.343-1.305c-3.873-1.515-9.009-.61-13.331 2.147 0-.547.056-1.165.056-1.165 0-6.09-1.761-10.334-4.967-11.927-5.739-2.918-16.796 1.866-23.005 12.629-6.511 11.303-6.764 23.153-.702 27.994a52.052 52.052 0 0 0-12.972 2.884V30.113a6.448 6.448 0 0 0-6.441-6.441H75.289a6.435 6.435 0 0 0-3.571 1.08 6.391 6.391 0 0 0-3.565-1.08H53.251a6.441 6.441 0 0 0-6.44 6.44v.899a6.693 6.693 0 0 0-.926-.098H31.453a6.372 6.372 0 0 0-4.743 2.168 6.37 6.37 0 0 0-4.743-2.169H6.441A6.448 6.448 0 0 0 0 37.36v36C0 86.69 10.77 96 26.198 96c8.749 0 15.99-3.024 20.613-8.097v.843a6.441 6.441 0 0 0 6.44 6.433h14.902a6.447 6.447 0 0 0 3.565-1.073 6.483 6.483 0 0 0 3.57 1.073h14.903a6.455 6.455 0 0 0 5.928-3.922c3.901 2.73 9.823 4.673 18.691 4.673 7.844 0 14.684-1.15 19.504-3.22a6.418 6.418 0 0 0 5.038 2.47h14.902a6.442 6.442 0 0 0 6.441-6.434V81.8c4.314 8.784 13.148 14.13 24.612 14.13 7.717 0 13.821-1.165 19.189-3.663a6.436 6.436 0 0 0 3.43-3.956c4.912 4.91 12.075 7.619 20.978 7.619 8.567 0 14.839-1.123 20.347-3.649a6.447 6.447 0 0 0 3.753-5.851V30.113a6.45 6.45 0 0 0-1.891-4.56 6.446 6.446 0 0 0-4.563-1.881Zm-45.057-8.16a4.74 4.74 0 0 0-1.677-1.929 8.803 8.803 0 0 0 1.803-2.743 10.615 10.615 0 0 0-.316 2.546c.017.713.081 1.423.19 2.126Z" fill="#0257B8"/><path fill-rule="evenodd" clip-rule="evenodd" d="M198.168 6.967c.512 2.434-1.901 5.023-5.374 5.725-3.48.723-6.701-.674-7.213-3.108-.512-2.435 1.902-4.996 5.375-5.718 3.472-.723 6.7.666 7.212 3.1Zm-4.525-.877c-.702-.554-1.972-.14-2.807.926-.828 1.073-.912 2.392-.21 2.947.701.554 1.978.147 2.806-.926.828-1.074.912-2.393.211-2.947ZM53.253 88.739V30.113h14.901v58.626H53.252ZM6.44 73.359c0 10.307 8.707 16.2 19.758 16.2v-.007c11.057 0 19.686-5.893 19.686-16.277V37.353H31.454v35.782c0 3.655-1.727 5.304-4.701 5.304-2.828 0-4.785-1.572-4.785-5.227V37.36H6.44v36Zm88.725 3.06c0 8.811 6.861 13.07 19.645 13.07h.035c7.977 0 14.193-1.27 17.799-3.059V63.277c0-11.429-7.135-15.533-17.491-15.533a46.873 46.873 0 0 0-17.406 3.136l3.059 7.991a31.263 31.263 0 0 1 11.45-2.47c4.076 0 6.511.899 6.511 4.112v1.572c-12.552 1.115-23.602 4.027-23.602 14.333Zm13.842-.583c0-5.599 3.999-6.946 9.725-7.395v12.776a7.771 7.771 0 0 1-3.214.52c-4.083 0-6.511-1.797-6.511-5.901ZM75.29 30.113v58.626h14.894V30.113H75.29Zm86.331 27.636a10.044 10.044 0 0 0-7.366-.702v31.67h-14.902V50.803c4.911-2.315 12.783-3.508 24.857-2.912l-2.589 9.823v.035Zm16.793 15.694c.942 4.327 3.37 6.483 8.774 6.483a27.135 27.135 0 0 0 11.296-2.16l3.29 8.664c-3.683 1.72-8.623 3.06-16.466 3.06-13.801 0-21.098-8.883-21.098-20.986 0-12.102 6.827-20.76 20.08-20.76 13.254 0 19.526 8.735 18.733 22.416l-24.609 3.283Zm-1.105-6.72c-.47-7.024 1.958-10.834 6.357-10.834l.028-.007c3.732 0 5.613 2.996 5.613 9.121l-11.998 1.72Zm51.596 22.766c-13.092 0-21.876-6.721-21.876-20.837 0-12.63 7.844-20.613 18.663-20.613a23.228 23.228 0 0 1 5.956.596V30.113h14.902V86.43c-4.392 2.014-9.57 3.06-17.645 3.06Zm2.743-33.36a9.974 9.974 0 0 0-2.35-.303c-5.332 0-7.528 4.336-7.528 12.398 0 8.363 2.35 12.404 7.289 12.404a6.19 6.19 0 0 0 2.589-.379V56.13Zm-13.772-23.925c-.316-1.586-2.147-6.61-7.928-13.03a212.838 212.838 0 0 0 2.301-4.047s2.554-3.165-2.582-5.122c-7.521-2.856-3.017 9.408-3.017 9.408-1.626 2.014-3.281 4.361-4.824 6.55-2.703 3.834-5.062 7.179-6.317 7.384-1.937.317-1.063-2.583.172-6.684l.067-.22c2.455-6.384 2.925-9.387 1.69-10.019a14.624 14.624 0 0 0-5.9-1.297c-11.338 0-16.046 10.446-14.032 18.241-1.782 1.887-4.076 1.922-5.718 1.831-2.659-.154-3.95-3.066-4.511-4.967h.035c9.254-.652 14.34-15.267 7.24-15.26-4.722 0-9.296 3.571-11.59 5.676l2.701-15.035-6.315 1.115-5.682 25.96c-1.312.954-5.613 3.746-9.746 3.023a4.41 4.41 0 0 1-3.798-3.175 4.404 4.404 0 0 1-.138-1.736s7.016.295 10.903-3.255c2-1.824 5.199-9.949-.814-12.3-4.209-1.648-12.151 1.151-15.098 7.929a13.865 13.865 0 0 0-1.186 8.307c.421 3.403 3.157 6.826 6.497 7.5 6.574 1.305 10.826-.968 12.467-2.308l-.582 2.483s2.105-.175 4.322-.14h3.382l1.249-8.124c1.15 2.104 4.209 7.479 7.787 8.208 4.245.863 8.314-1.136 9.647-3.164.99 2.063 3.122 3.017 5.438 3.017a8.069 8.069 0 0 0 5.353-2.301c.793 1.052 2.105 2.3 3.95 2.3 1.957 0 4.673-2.574 7.43-6.033.217.597 2.441 6.272 10.776 6.272 7.234 0 6.666-5.493 6.35-7.072l.021.084Zm-72.012-12.377c3.571-.61 2.701 3.396 1.684 5.143-1.839 3.143-7.564 2.806-7.564 2.806s.527-7.016 5.88-7.935v-.014Zm15.856 7.907c1.922-4.483 7.542-9.324 10.377-7.907 2.525 1.277-4.778 8.847-10.377 7.907Zm22.984 5.164c-3.683-1.038-.961-10.847 3.957-13.653.87-.498 2.484-1.242 3.971-.253 1.088.702-3.192 15.246-7.928 13.906Zm24.185 1.109c-3.13-.274-4.912-2.035-5.48-4.357 1.365-1.925 2.623-3.993 3.789-5.908.296-.486.586-.962.87-1.424 1.017 1.207 6.868 12.215.821 11.689ZM131.509 4.16c2.315 1.172 3.396 6.736 2.385 13.1v-.015l-7.83.421c.912-5.128.856-8.166-.821-8.587-2.041-.505-4.721 4.553-7.114 12.411-2.126 6.988-1.27 11.78.835 12.699 1.768.772 3.136-2.182 5.136-7.718l-2.105-.084 1.207-3.767 8.482 1.978-1.74 20.424a20.627 20.627 0 0 0-3.143-2.049 26.16 26.16 0 0 0-3.747-1.277l1.102-6.476c-4.294 3.817-8.805 5.164-11.829 3.06-4.638-3.284-4.013-13.598 1.466-23.055 5.48-9.458 14.362-12.762 17.716-11.065Z" fill="#FEDB00"/></g><defs><clipPath id="a"><path fill="#fff" d="M0 0h252.99v96H0z"/></clipPath></defs></svg>