<svg width="100%" height="100%" viewBox="0 0 24 24" fill="none" xmlns="http://www.w3.org/2000/svg"><path fill-rule="evenodd" clip-rule="evenodd" d="M11.5 5.5a1.5 1.5 0 1 1-3 0 1.5 1.5 0 0 1 3 0Zm7.47 0h.04a2.48 2.48 0 0 1 2.49 2.44v.04c0 1.35-1.08 2.46-2.44 2.48l-.96.02-9.02 9.02-.58.5c-.41.31-.94.5-1.5.5H5a2.5 2.5 0 0 1 0-5h1L8.5 13V8.61c0-.61.51-1.11 1.12-1.11h.76c.61 0 1.12.5 1.12 1.11V10l3.75-3.75c.44-.43 1.03-.7 1.69-.71l2.03-.04Zm-.9 3.48.96-.02c.54-.01.97-.45.97-.98a.98.98 0 0 0-.89-.98h-.12l-2.02.04c-.32 0-.54.16-.67.28L6.62 17H5c-.27 0-.52.11-.71.29A1.003 1.003 0 0 0 5 19h2c.2 0 .4-.06.57-.18l.49-.42 9.41-9.42h.6Z" fill="#fff"/></svg>